<?xml version="1.0" encoding="utf-8"?>
<!-- Generator: Adobe Illustrator 24.0.1, SVG Export Plug-In . SVG Version: 6.00 Build 0)  -->
<svg version="1.1" id="Слой_1" xmlns="http://www.w3.org/2000/svg" xmlns:xlink="http://www.w3.org/1999/xlink" x="0px" y="0px"
	 viewBox="0 0 466.74 143.15" style="enable-background:new 0 0 466.74 143.15;" xml:space="preserve">
<style type="text/css">
	.st0{fill:#595D64;}
</style>
<g>
	<path class="st0" d="M51.69,63.2c0.38,2.47,1.14,7.6,1.14,10.35c0.47,8.83-0.95,23.85,8.17,26.22c4.66,1.33,9.5-0.76,11.97-2.38
		l0.28,0.19c-5.42,3.99-14.44,4.66-18.62-0.67c-6.08-7.79-4.37-21.66-3.51-30.4c0.09-0.28,0.29-3.04,0.09-2.85
		C44.19,74.22,36.4,86.19,31.74,93.5c-0.85,1.43-3.32,1.9-2.75,0.19c5.04-9.79,19.29-28.79,22.52-34.2
		c5.42-8.17,10.17-15.01,15.11-23.28c-9.88,8.46-21.38,9.31-33.16,18.05c-2.19,2-5.61,5.04-7.6,7.13c-0.19-1.62,6.08-6.46,7.22-7.41
		c10.55-8.46,23.28-9.41,34.3-18.81c1.04-1.62,3.23-2.19,2.28,0.19c-5.32,8.36-10.83,17.29-16.53,25.46
		c0.76-0.29,4.37-1.71,4.84-2.19c7.6-4.37,14.35-9.5,20.71-15.96c2.95-2.85,7.51-7.98,10.55-7.69v0.19
		c-1.33,0.48-3.23,1.52-4.28,2.56c-5.04,4.65-9.03,9.02-13.3,12.54C64.8,55.5,59.29,59.4,52.36,61.96L51.69,63.2z"/>
	<path class="st0" d="M70.12,75.36c3.04-4.28,5.89-9.12,9.12-14.16c-2.66,2.19-7.32,6.75-10.07,8.74l-0.09-0.29
		c3.04-2.47,6.75-6.08,9.79-9.03c1.52-1.52,2.56-3.42,3.71-5.03c0.57-0.85,1.42-2.66,2.28-2.28c0.57,0.19-0.47,2.47-0.67,2.95
		c-1.42,2.56-2.75,5.03-4.18,7.5c-0.85,1.43-1.52,2.56-2.28,3.9l-2,3.61c1.71-1.43,3.61-2.95,5.42-4.28
		c1.14-0.85,2.85-2.38,4.37-2.94c1.33-0.48,2.38,0.28,2.09,1.33c-0.38,1.33-3.33,5.89-4.47,6.65c-0.19,0.1,1.43-0.1,1.9-0.1
		c2.47-0.28,6.37-0.95,8.46-1.8c1.42-0.76,2.75-0.38,0.57,0.09c-2.75,0.95-6.94,2-9.88,2c-0.47,0-0.85,0.1-1.33,0.1
		c-0.1,0-0.29,0.19-0.48,0.38c-1.14,1.04-8.26,6.27-6.55,2.47c0.85-1.24,2.47-2.19,3.89-2.85c0.76-0.38,1.33-0.95,1.52-1.24
		c0.57-0.67,6.93-8.27,3.13-5.98c-1.71,1.04-3.9,2.94-5.51,4.08c-1.14,0.85-2,1.81-2.95,2.56c-0.38,0.38-0.76,0.76-1.14,1.14
		c-2.57,2.94-4.85,7.03-6.84,10.26c-6.65,10.83-17.86,30.5-23.46,37.43c-2.85,3.71-9.12,7.22-7.13-0.28
		c3.04-11.21,17.2-27.55,28.69-40.57C67.75,77.83,69.17,76.69,70.12,75.36z M37.54,122.29c-0.19,3.9,3.42,1.04,4.85-1.05
		c8.46-13.02,15.2-26.03,23.08-38.48l3.71-5.7c-6.65,6.75-15.39,17.67-20.81,24.89C42.95,109.08,37.82,117.44,37.54,122.29z
		 M75.92,75.45c-0.67,1.52,4.08-1.71,4.37-2.94C78.58,72.98,76.11,74.69,75.92,75.45z"/>
	<path class="st0" d="M100.62,64.62c-1.8,2.28-3.51,4.37-5.04,6.75c-0.28,0.48-0.95,2,0.19,2.19c1.62-0.1,5.22-4.08,6.75-5.79
		c1.24-1.52,2.47-2.85,3.8-4.28c2.19-2.38,4.08-1.71,2.47,0.29c-1.99,2.38-3.71,4.75-5.32,7.31c-0.76,1.43-4.56,8.36-0.67,8.36
		c3.42-0.1,9.31-6.18,11.68-7.98c3.9-3.33,2.57-1.71,0.48,0.09c-3.42,2.85-7.03,6.65-11.02,8.17c-4.66,1.33-4.37-4.94-3.61-7.22
		c0.19-0.95,1.81-3.61,0-1.81c-0.85,0.76-1.71,1.52-2.66,2.28c-0.86,0.76-2,1.04-2.57,0.76c-3.9-1.71,2.66-8.83,3.8-9.88
		C99.86,63.01,101.76,63.48,100.62,64.62z"/>
	<path class="st0" d="M118.1,67.47c1.42-1.81,3.14-3.71,5.51-4.18c0.57-0.09,2.38-0.19,2.56,0.57c0.29,0.76-0.29,1.8-1.04,2.47
		c-0.19,0-0.19-0.19-0.19-0.28c0.19-0.19,0.57-0.76,0.67-0.95c1.05-2.19-2.18-1.04-5.13,3.23c-1.33,2-2.66,3.9-3.89,5.89
		c-0.76,1.33-1.62,3.33-0.57,4.65c3.42,3.04,13.02-7.31,16.82-9.21c0,0,0.09,0,0.09,0.09c-4.37,3.23-12.54,10.55-16.15,10.17
		c-4.75-0.67-2.85-6.46-1.14-8.93L118.1,67.47z"/>
	<path class="st0" d="M135.77,73.17c-1.14,1.8-2.47,0.28-1.42-1.04c1.33-2,2.56-3.99,3.89-6.08c0.38-0.67,1.04-2.38-0.29-1.43
		c-2.09,1.43-3.33,3.61-5.04,5.32c-0.38,0.38-0.38-0.29,1.33-2.09c1.04-1.14,4.18-4.75,5.13-3.8c0.76,0.76-0.28,3.04-0.57,3.99
		c0.85-0.57,2.18-1.71,3.13-1.9c1.62-0.19,0.86,1.33,0.76,2.19c-0.19,0.76,0.76,0.1,1.14-0.19c3.8-2.66,6.84-6.08,11.12-7.79
		c2.75-1.14,1.99,2.19,1.04,3.42c-2.85,4.56-5.8,9.12-8.65,13.68c-4.84,7.31-1.62,11.4,4.84,4.66c2.19-2.57,4.47-5.23,6.75-7.79
		c6.18-6.75,6.27-6.18,0.57,0c-2.18,2.56-4.28,5.13-6.55,7.69c-2.57,3.14-8.27,6.46-9.69,1.14c-0.19-1.04,0-2.19,0.29-3.33
		c0.67-2.56,2.09-4.85,3.71-7.13c2.85-3.99,5.32-7.5,7.7-11.12c1.99-3.52-10.17,5.79-12.26,8.55c-0.67,0.76-1.14,1.61-1.8,2.28
		c-1.24,1.33-2.19,0.1-1.71-0.67c0.57-1.14,1.33-2.19,2-3.32c0.19-0.29,0.47-0.67,0.57-1.14c0.57-1.71-2.47,0.85-2.75,1.33
		C137.86,70.04,136.91,71.56,135.77,73.17z"/>
	<path class="st0" d="M169.58,64.62c-1.8,2.28-3.51,4.37-5.04,6.75c-0.28,0.48-0.95,2,0.19,2.19c1.62-0.1,5.22-4.08,6.75-5.79
		c1.24-1.52,2.47-2.85,3.8-4.28c2.19-2.38,4.08-1.71,2.47,0.29c-1.99,2.38-3.7,4.75-5.32,7.31c-0.76,1.43-4.56,8.36-0.67,8.36
		c3.42-0.1,9.31-6.18,11.68-7.98c3.9-3.33,2.57-1.71,0.48,0.09c-3.42,2.85-7.03,6.65-11.02,8.17c-4.66,1.33-4.37-4.94-3.61-7.22
		c0.19-0.95,1.81-3.61,0-1.81c-0.85,0.76-1.71,1.52-2.66,2.28c-0.86,0.76-2,1.04-2.57,0.76c-3.9-1.71,2.66-8.83,3.8-9.88
		C168.83,63.01,170.73,63.48,169.58,64.62z"/>
	<path class="st0" d="M204.54,69.94c-3.8,1.9-7.03,6.36-10.64,8.36c-1.42,0.76-2.75,0.57-3.61-0.48c-1.62-2,0.19-6.65,1.52-8.83
		c-0.67,0.1-2.47,0-3.13,0.38s-0.86,0.85-1.33,1.43c-0.38,0.38-0.67,1.14-1.33,1.71c-0.19,0.19-0.67,0.57-1.14,0.09
		c-0.57-0.19-0.48-0.47-0.19-1.04c0.38-0.76,0.86-1.81,1.42-2.66c0.95-1.52,2.28-2.94,3.42-4.08c0.47-0.48,0.85,0.1,1.23,0.57
		c0.38,0.57-1.42,2.19-1.9,3.51c1.23-0.28,2.18,0,3.23-0.38c0.48-0.19,0.95-1.14,1.33-1.71c0.86-1.52,2.09-2.75,3.33-4.08
		c0.38-0.48,1.8-0.19,1.42,0.48c-1.71,3.04-3.89,5.89-5.51,8.83c-1.14,2.28-3.23,5.6-0.95,6.37c2.18,0.57,5.89-3.42,7.32-4.75
		c1.52-1.43,5.51-4.37,5.51-4.18V69.94z"/>
	<path class="st0" d="M204.16,71.46c-0.29-2.09,1.9-3.8,3.04-4.75c2.47-1.8,5.51-1.99,5.6-0.09c0,0.09,0.19-0.1,0.76-0.57
		c0.85-0.67,1.14-1.24,2.09-2c0.57-0.48,2.18-0.1,1.52,0.95c-3.13,3.8-6.36,7.51-8.26,12.16c-1.42,5.04,3.8,0.76,6.27-0.95
		c2.57-2,5.13-3.99,7.98-5.51c2.95-1.52,3.33-1.52,1.33-0.19c-2.28,1.04-3.51,1.9-5.32,3.23c-2.28,1.52-4.56,3.33-6.84,4.85
		c-5.79,4.08-5.61-2.28-3.99-5.7c0.29-0.57,0.57-1.33,0.95-1.9c-1.04,0.48-2.18,1.23-3.13,1.52
		C205.02,72.89,204.35,72.6,204.16,71.46z M205.59,71.37c-0.29,0.48-0.38,1.33,0.57,0.85c2.85-1.14,4.37-2.75,5.99-4.85
		c1.04-1.71-1.05-2.47-2.28-1.14C208.44,67.85,206.82,69.56,205.59,71.37z"/>
	<path class="st0" d="M258.03,65.95c0.85-0.85,1.9-1.33,3.04-1.71c2.38-1.04,5.13-1.43,7.69-1.43c2.28,0,4.56,0.1,6.84,0.29
		c0.67,0.1,1.23-0.19,1.52-0.76c1.42-2.09,2.85-4.37,4.28-6.65c2.18-3.32,4.18-6.56,6.27-9.88c2.76-3.99,5.61-7.98,8.27-11.78
		c0.47-0.57,0.76-1.33,1.14-1.9c0,0,0-0.1,0.19-0.38c-0.29,0-0.48,0-0.57,0.09c-1.42,1.04-3.04,2-4.56,3.04
		c-2.47,1.52-5.04,2.66-7.7,3.52c-1.14,0.29-2.47,0.85-3.61,1.14c-2.94,0.76-5.79,1.42-8.83,2.19c-1.52,0.38-3.23,0.85-4.84,1.42
		c-2.09,0.57-4.28,1.23-6.27,2.28c-1.42,0.57-2.85,1.52-4.28,2.38c-1.42,1.04-2.66,1.99-4.08,3.04c-0.19,0.09-0.28,0.28-0.47,0.28
		c0,0,0-0.19-0.09-0.19c0.29-0.29,0.38-0.57,0.67-0.85c1.33-0.95,2.47-2,3.71-2.66c1.9-1.33,3.89-2.47,5.89-3.32
		c1.71-0.85,3.71-1.24,5.51-1.81c4.75-1.33,9.41-2.56,14.16-3.9c5.23-1.43,9.98-3.8,14.25-6.94c1.99-1.43,3.99-3.14,5.79-4.56
		c0.29-0.29,0.57-0.48,0.76-0.57c0.09,0.1,0.09,0.1,0.09,0.1c0,0.19,0.29,0.48,0.29,0.57c-2.57,3.71-5.04,7.32-7.41,11.02
		c-3.71,5.51-7.32,11.21-10.83,16.81c-1.62,2.28-2.85,4.66-4.28,6.94c-0.47,1.24-0.47,1.62,0.67,1.62
		c3.71,0.09,7.03,0.09,10.74,0.09c1.33,0,2.09,0.19,3.42,0c0.38,0,0.95-0.09,1.14-0.38c1.52-2.47,3.13-4.75,4.65-7.13
		c1.33-2,2.47-3.99,3.9-5.89c1.8-2.66,3.71-5.42,5.51-8.08c1.04-1.14,1.52-2.28,2.57-3.42c0.09-0.19,1.33-0.29,1.52-0.29
		c0.1,0,0.1,0,0.29,0c-0.19,0.29,0.09,0.67-0.09,0.85c-1.42,2.38-2.95,4.66-4.56,6.94c-3.13,5.04-6.08,9.88-9.21,14.73
		c-0.38,0.76-1.33,1.42-1.33,2.28c0,1.14,8.08,0.1,11.88-2.75c0.19-0.1,0.29-0.1,0.57-0.1v0.1c-1.9,2.38-7.88,3.42-10.74,3.71
		c-2-0.38-3.23,0.85-4.27,2.19c-2.28,3.13-4.37,6.27-6.56,9.5c-2.95,4.56-5.99,9.12-8.93,13.58c-0.76,1.14-1.42,2.09-2.19,3.23
		c-0.29,0.28-0.95,0.85-1.52,0.47c-0.38-0.28-0.86-0.85-0.57-1.42c0.38-0.76,0.86-1.33,1.24-2c3.89-5.89,7.7-11.69,11.4-17.58
		c1.61-2.28,3.13-4.37,4.56-6.56c0.29-0.38,0.29-0.85,0.47-1.23c-0.47-0.19-0.38-0.19-0.85-0.19c-3.99,0-7.6,0-11.59,0
		c-0.67,0-1.43,0-2.09,0c-1.04-0.1-1.61,0.28-2.18,1.14c-1.52,2.47-3.13,4.84-4.66,7.31c-3.33,4.94-6.75,9.79-10.54,14.35
		c-2.28,2.85-4.56,5.89-7.7,8.17c-1.04,0.67-2,1.43-3.33,1.52c-0.95,0-2.18-0.57-2.18-1.52c0-2.56,1.14-4.75,3.23-6.27
		c-0.57,0.67-1.14,1.42-1.71,2.28c-0.67,1.14-1.14,2.38-1.14,3.71c0,0.95,0.47,1.43,1.42,1.24c0.86-0.29,1.71-0.57,2.28-1.14
		c1.9-2,3.71-4.08,5.42-6.27c2.85-3.71,5.61-7.41,8.17-11.4c2.66-3.99,5.23-8.27,7.79-12.35c0.19-0.19,0.19-0.28,0.29-0.28
		c0.29-0.76,0.19-1.05-0.57-1.05c-2.94-0.09-5.98-0.67-8.93-0.28c-2.75,0.47-5.32,1.33-7.41,2.85c-0.29,0.19-0.76,0.28-1.04,0.57
		c0-0.1,0-0.1-0.09-0.29C257.74,66.24,257.93,66.05,258.03,65.95z"/>
	<path class="st0" d="M324.15,69.94c2.57-1.24,0.76,0.28-0.47,0.57c-1.9,0.76-3.8,1.04-5.7,1.23c-0.86,0.1-1.62,0.19-2.57,0
		c-1.23,1.9-2.85,3.8-4.65,5.04c-1.14,0.76-3.04,0.57-3.61-0.67c-0.57-2,0.95-4.75,2.09-6.08l1.04-1.42
		c-2.38-3.42-1.04-8.46,3.51-9.03c5.04-0.57,4.75,7.7,1.81,11.78c0.19,0,0.38,0.1,0.67,0.1C318.92,71.46,321.58,70.99,324.15,69.94z
		 M314.93,71.65c-0.29,0-0.95-0.29-1.52-0.57c-0.57-0.28-1.14-0.76-1.42-0.95c-0.09,0.09-0.47,0.57-0.95,1.33
		c-0.95,1.52-1.9,2.75-2.18,4.08c-0.09,1.04,0.47,1.71,1.9,0.76c1.42-0.85,2.56-2.38,3.51-3.71L314.93,71.65z M311.42,60.82
		c-1.9,1.52-2.85,4.94-0.76,7.41c1.14-1.05,2.19-2.09,3.42-2.66c1.14-0.48,1.14,0.95,0.57,1.52c-0.67,0.67-1.24,1.33-1.9,2.09
		l-0.47,0.57c0.29,0.19,0.86,0.76,1.42,1.05c0.57,0.28,1.24,0.48,1.52,0.48C318.07,68.23,319.02,56.45,311.42,60.82z"/>
	<path class="st0" d="M328.71,62.82c1.71-2.47,3.33-5.03,5.04-7.5c1.42-1.9,2.95-3.71,4.56-5.42c2.28-2.38,4.56-4.75,6.93-7.03
		c0.95-0.95,2.09-1.8,3.13-2.66c1.33-1.24,2.85-2.19,4.47-3.04c2.38-1.14,8.46-3.23,7.88,1.33c-1.71,5.51-6.84,9.5-10.64,12.73
		c-2.85,2.38-6.08,4.37-9.22,6.46c-1.62,0.95-3.33,1.9-5.04,2.85c-1.23,0.67-2.47,1.23-3.71,1.9c-0.38,0.19-0.76,0.48-1.04,0.85
		c-0.85,1.33-1.8,2.76-2.56,4.28c-1.04,2.09-2.09,4.18-2.95,6.27c-0.29,0.48-1.42,3.61-0.09,2.38c2.85-2.38,5.22-4.94,8.26-7.03
		c1.52-1.04,3.52-0.09,2.95,1.71c-0.57,1.81-1.71,3.23-2.47,4.66c5.03-1.04,9.02-3.23,12.54-5.89c0.19-0.19,0.38,0.19,0.19,0.19
		c-3.8,3.04-8.17,4.94-12.54,6.08c-0.67,0.1-1.04,0.48-1.42,0.95c-2.47,2.94-4.94,5.13-7.79,6.27c-1.52,0.38-1.8-1.52-1.33-2.28
		c1.24-2.19,3.8-3.42,5.79-4.18c0.47-0.1,0.95-0.57,1.33-0.95c1.04-1.42,2.09-2.85,3.13-4.27c0.76-1.14,2.38-3.8-0.57-1.62
		c-3.33,2.09-5.8,5.51-8.65,7.6c-1.9,1.04-2.18-0.67-1.8-2.09c0.67-2.57,1.52-5.13,2.75-7.6L328.71,62.82z M325.48,79.54
		c-0.67,0.57-1.52,1.62-1.43,2.38c0.19,0.95,1.71-0.57,2-0.76c0.86-0.76,1.71-1.52,2.47-2.28c0.67-0.57,1.61-1.61,1.8-1.99
		C328.61,77.35,326.81,78.4,325.48,79.54z M348.56,51.7c3.8-2.76,10.64-8.74,11.59-13.3c0.38-3.42-4.75-1.04-6.08-0.38
		c-0.85,0.47-1.71,1.23-2.56,1.9c-2,1.52-3.9,3.23-5.61,5.13c-1.52,1.71-3.13,3.33-4.66,5.04c-1.42,1.62-2.85,3.14-4.18,4.75
		c-1.33,1.62-2.57,3.42-3.8,5.13c-0.29,0.38-0.57,0.85-0.86,1.52C338.11,59.21,343.72,55.22,348.56,51.7z"/>
	<path class="st0" d="M353.02,64.62c-1.8,2.28-3.51,4.37-5.04,6.75c-0.28,0.48-0.95,2,0.19,2.19c1.62-0.1,5.22-4.08,6.75-5.79
		c1.24-1.52,2.47-2.85,3.8-4.28c2.19-2.38,4.08-1.71,2.47,0.29c-1.99,2.38-3.7,4.75-5.32,7.31c-0.76,1.43-4.56,8.36-0.67,8.36
		c3.42-0.1,9.31-6.18,11.68-7.98c3.9-3.33,2.57-1.71,0.48,0.09c-3.42,2.85-7.03,6.65-11.02,8.17c-4.66,1.33-4.37-4.94-3.61-7.22
		c0.19-0.95,1.81-3.61,0-1.81c-0.85,0.76-1.71,1.52-2.66,2.28c-0.86,0.76-2,1.04-2.57,0.76c-3.9-1.71,2.66-8.83,3.8-9.88
		C352.26,63.01,354.17,63.48,353.02,64.62z"/>
	<path class="st0" d="M388.84,72.51c-3.71,2.66-9.88,10.64-13.4,13.4c-4.66,4.37-5.89-1.14-3.99-5.04
		c1.33-2.75,5.99-8.74,3.71-10.92c-0.38-0.48-0.95,0.09-1.33,0.95c-0.19,0.48-2.18,4.47-2.95,3.99c-2.18-0.48-1.33-2.09-0.95-2.66
		c1.33-1.9,2.94-3.52,4.18-5.32c1.42-2.66-3.61,2.19-4.75,2.94c-1.24,0.76-1.04,0.19,0-0.38c1.71-1.33,4.56-4.47,7.03-4.08
		c1.8,0.28-1.24,3.32-0.76,3.32c3.04-1.04,5.8-4.08,7.51-6.94c0,0,0.38,0,0.47,0.19c-1.52,2.47-3.51,4.94-6.08,6.37
		c-0.38,0.19-1.8,0.85-1.9,0.95c-0.28,0.28,0.1,0.67,0.29,1.04c1.24,3.04-0.09,6.08-1.04,9.21c-0.95,2.28-1.62,3.04-2.09,5.42
		c-0.19,2.28-0.47,2.95,3.33-0.47c4.27-3.33,8.55-9.88,14.06-13.49c2.09-2,2.85-2.28,0.95-0.29
		C390.45,71.37,389.6,71.94,388.84,72.51z"/>
	<path class="st0" d="M406.7,69.94c2.57-1.24,0.76,0.28-0.47,0.57c-1.9,0.76-3.8,1.04-5.7,1.23c-0.86,0.1-1.62,0.19-2.57,0
		c-1.23,1.9-2.85,3.8-4.65,5.04c-1.14,0.76-3.04,0.57-3.61-0.67c-0.57-2,0.95-4.75,2.09-6.08l1.04-1.42
		c-2.38-3.42-1.04-8.46,3.51-9.03c5.04-0.57,4.75,7.7,1.81,11.78c0.19,0,0.38,0.1,0.67,0.1C401.47,71.46,404.13,70.99,406.7,69.94z
		 M397.48,71.65c-0.29,0-0.95-0.29-1.52-0.57c-0.57-0.28-1.14-0.76-1.42-0.95c-0.09,0.09-0.47,0.57-0.95,1.33
		c-0.95,1.52-1.9,2.75-2.18,4.08c-0.09,1.04,0.47,1.71,1.9,0.76c1.42-0.85,2.56-2.38,3.51-3.71L397.48,71.65z M393.97,60.82
		c-1.9,1.52-2.85,4.94-0.76,7.41c1.14-1.05,2.19-2.09,3.42-2.66c1.14-0.48,1.14,0.95,0.57,1.52c-0.67,0.67-1.24,1.33-1.9,2.09
		l-0.47,0.57c0.29,0.19,0.86,0.76,1.42,1.05c0.57,0.28,1.24,0.48,1.52,0.48C400.62,68.23,401.57,56.45,393.97,60.82z"/>
	<path class="st0" d="M411.26,62.82c1.71-2.47,3.33-5.03,5.04-7.5c1.42-1.9,2.95-3.71,4.56-5.42c2.28-2.38,4.56-4.75,6.93-7.03
		c0.95-0.95,2.09-1.8,3.13-2.66c1.33-1.24,2.85-2.19,4.47-3.04c2.38-1.14,8.46-3.23,7.88,1.33c-1.71,5.51-6.84,9.5-10.64,12.73
		c-2.85,2.38-6.08,4.37-9.22,6.46c-1.62,0.95-3.33,1.9-5.04,2.85c-1.23,0.67-2.47,1.23-3.71,1.9c-0.38,0.19-0.76,0.48-1.04,0.85
		c-0.85,1.33-1.8,2.76-2.56,4.28c-1.04,2.09-2.09,4.18-2.95,6.27c-0.29,0.48-1.42,3.61-0.09,2.38c2.85-2.38,5.22-4.94,8.26-7.03
		c1.52-1.04,3.52-0.09,2.95,1.71c-0.57,1.81-1.71,3.23-2.47,4.66c5.03-1.04,9.02-3.23,12.54-5.89c0.19-0.19,0.38,0.19,0.19,0.19
		c-3.8,3.04-8.17,4.94-12.54,6.08c-0.67,0.1-1.04,0.48-1.42,0.95c-2.47,2.94-4.94,5.13-7.79,6.27c-1.52,0.38-1.81-1.52-1.33-2.28
		c1.24-2.19,3.8-3.42,5.79-4.18c0.47-0.1,0.95-0.57,1.33-0.95c1.04-1.42,2.09-2.85,3.13-4.27c0.76-1.14,2.38-3.8-0.57-1.62
		c-3.33,2.09-5.8,5.51-8.65,7.6c-1.9,1.04-2.18-0.67-1.8-2.09c0.67-2.57,1.52-5.13,2.75-7.6L411.26,62.82z M408.03,79.54
		c-0.67,0.57-1.52,1.62-1.43,2.38c0.19,0.95,1.71-0.57,2-0.76c0.86-0.76,1.71-1.52,2.47-2.28c0.67-0.57,1.61-1.61,1.8-1.99
		C411.16,77.35,409.36,78.4,408.03,79.54z M431.11,51.7c3.8-2.76,10.64-8.74,11.59-13.3c0.38-3.42-4.75-1.04-6.08-0.38
		c-0.85,0.47-1.71,1.23-2.56,1.9c-2,1.52-3.9,3.23-5.61,5.13c-1.52,1.71-3.13,3.33-4.66,5.04c-1.42,1.62-2.85,3.14-4.18,4.75
		c-1.33,1.62-2.57,3.42-3.8,5.13c-0.29,0.38-0.57,0.85-0.86,1.52C420.66,59.21,426.27,55.22,431.11,51.7z"/>
	<path class="st0" d="M429.02,71.46c-0.29-2.09,1.9-3.8,3.04-4.75c2.47-1.8,5.51-1.99,5.6-0.09c0,0.09,0.19-0.1,0.76-0.57
		c0.85-0.67,1.14-1.24,2.09-2c0.57-0.48,2.18-0.1,1.52,0.95c-3.13,3.8-6.36,7.51-8.26,12.16c-1.42,5.04,3.8,0.76,6.27-0.95
		c2.56-2,5.13-3.99,7.98-5.51c2.95-1.52,3.33-1.52,1.33-0.19c-2.28,1.04-3.51,1.9-5.32,3.23c-2.28,1.52-4.56,3.33-6.84,4.85
		c-5.79,4.08-5.61-2.28-3.99-5.7c0.29-0.57,0.57-1.33,0.95-1.9c-1.04,0.48-2.18,1.23-3.13,1.52
		C429.88,72.89,429.21,72.6,429.02,71.46z M430.45,71.37c-0.29,0.48-0.38,1.33,0.57,0.85c2.85-1.14,4.37-2.75,5.98-4.85
		c1.05-1.71-1.04-2.47-2.28-1.14C433.3,67.85,431.68,69.56,430.45,71.37z"/>
</g>
</svg>
