<?xml version="1.0" encoding="utf-8"?>
<!-- Generator: Adobe Illustrator 24.0.1, SVG Export Plug-In . SVG Version: 6.00 Build 0)  -->
<svg version="1.1" id="Слой_1" xmlns="http://www.w3.org/2000/svg" xmlns:xlink="http://www.w3.org/1999/xlink" x="0px" y="0px"
	 viewBox="0 0 425.2 425.2" style="enable-background:new 0 0 425.2 425.2;" xml:space="preserve">
<style type="text/css">
	.st0{fill:#FFFFFF;}
	.st1{fill:#B1976B;}
</style>
<g>
	<g>
		<path class="st0" d="M172.67,166.33c2.58,0.65,3.55,1.62,3.55,2.75c0,1.94-0.97,4.2-3.88,7.91c-4.52,5.66-9.96,12.11-15.33,17.87
			h4.75c5.88-6.34,12.09-13.19,17.85-19.49c6.94-7.75,9.69-9.37,18.41-10.5c0.65-0.48,0.48-2.1,0-2.42
			c-4.52,0.32-8.56,0.48-16.96,0.48c-5.98,0-10.66-0.48-15.67-0.48c-0.48,0.32-0.65,2.1-0.16,2.42
			C168.8,165.36,170.74,165.84,172.67,166.33z"/>
		<path class="st0" d="M289.34,166.49c4.52,1.45,5.17,4.36,5.49,8.72c0.33,3.9,0.51,11.05,0.61,19.65h5.28
			c0.11-8.64,0.27-16.03,0.57-20.46c0.16-3.71,1.13-7.11,5.17-8.24c2.1-0.65,3.39-0.81,6.3-1.29c0.32-0.32,0.32-2.1,0-2.42
			c-1.78,0-10.17,0.48-14.7,0.48c-7.59,0-14.37-0.48-18.41-0.48c-0.32,0.32-0.65,2.1-0.16,2.42
			C283.21,165.2,286.6,165.68,289.34,166.49z"/>
		<path class="st0" d="M217.8,169.88c2.1,2.26,2.91,5.33,2.91,6.78c-0.06,6.25-0.13,12.35-0.21,18.2h4.8
			c0.02-6.08,0.05-11.46,0.09-15.29c0-0.16,0.48-0.32,0.65-0.16c1.85,2.26,6.54,7.98,12.64,15.45h12.67
			c-7.16-8.7-13.93-16.95-19.18-23.37c-4.36-5.33-5.81-7.75-6.3-8.72c-1.45,0.16-3.55,0.16-6.78,0.16c-5.01,0-12.44-0.48-14.7-0.48
			c-0.32,0.32-0.48,2.1-0.32,2.42C210.69,165.68,214.41,166.01,217.8,169.88z"/>
		<path class="st0" d="M119.22,165.68c4.04,0.97,5.33,1.61,5.65,8.72c0.29,6.02,0.35,13.12,0.35,20.46h9.84
			c0.02-7.32,0.06-15.27,0.15-18.84c0.32-6.94,0.32-8.72,3.71-9.85c0.97-0.32,5.01-0.97,7.27-1.29c0.32-0.48,0.32-2.1,0-2.42
			c-3.55,0-10.5,0.48-16.15,0.48c-7.75,0-13.73-0.48-17.6-0.48c-0.32,0.48-0.32,1.94,0,2.42
			C114.05,165.04,117.28,165.2,119.22,165.68z"/>
		<path class="st0" d="M300.49,225.43h-4.96c-0.02,7.9-0.04,15.46-0.04,21.64L295,247.4c-2.26-2.57-9.4-11.12-18.4-21.97H263.5
			c13.13,16.31,25.45,31.87,29.08,37.31c1.61-0.16,6.62-0.16,8.07,0c-0.16-5.01-0.32-14.05-0.32-21.32
			C300.4,236.57,300.45,231.11,300.49,225.43z"/>
		<path class="st0" d="M240.25,260c-2.91-0.32-6.3-0.65-8.56-1.45c-3.39-0.97-5.81-2.75-6.14-10.82c-0.12-3.61-0.2-12.2-0.24-22.29
			H220c-0.22,10.91-0.43,18.91-0.58,22.29c-0.32,8.4-2.91,10.17-6.62,11.14c-1.94,0.6-3.35,0.78-5.99,1.06
			c-5.9-0.21-8.6-0.72-11.04-1.87c-1.62-0.81-2.91-1.62-4.85-3.07c-5.54-4.3-18.61-18.1-28.75-29.56h-13.6
			c10.2,12.05,23.78,27.09,28.95,31.66c3.88,3.23,5.98,4.2,7.59,4.68c3.39,1.13,17.77,1.13,23.74,0.65
			c0.04-0.01,0.08-0.05,0.12-0.08c3.16-0.14,7.42-0.41,12.87-0.41c8.24,0,15.18,0.48,18.25,0.48
			C240.41,262.26,240.73,260.16,240.25,260z"/>
		<path class="st0" d="M135.15,231.34h0.02c-0.02-1.95-0.04-3.91-0.05-5.9h-9.9c0,4.04-0.01,8.04-0.05,11.82v24.73
			c1.24-0.03,2.45-0.04,3.58-0.04c2.14,0,4.29,0.04,6.4,0.1V231.34z"/>
	</g>
	<g>
		<path class="st1" d="M123.3,206.64h1.31v10.79h-1.31V206.64z M126.39,211.71l5.05,5.72h-1.68l-4.89-5.63l4.73-5.16h1.59
			L126.39,211.71z"/>
		<path class="st1" d="M134.91,217.42v-10.79c0.6,0,2.59-0.03,2.9-0.03c2.94,0,3.84,1.46,3.84,3.21c0,1.68-1.16,2.74-2.34,3.05
			l3.59,4.56h-1.6l-3.31-4.31h-1.76v4.31H134.91z M136.22,207.87v4.01h1.59c1.25,0,2.45-0.77,2.45-2.05c0-1.11-0.62-1.99-2.53-1.99
			C137.39,207.84,136.73,207.85,136.22,207.87z"/>
		<path class="st1" d="M146.67,206.64h1.31v10.79h-1.31V206.64z"/>
		<path class="st1" d="M152.48,209.3c0-1.56,1.2-2.82,3.25-2.82c1.25,0,2.36,0.45,2.97,1.13l-0.71,0.99
			c-0.57-0.57-1.25-0.88-2.19-0.88c-1.2,0-1.94,0.63-1.94,1.59c0,2.67,5.27,1.66,5.27,5.35c0,1.77-1.56,2.93-3.51,2.93
			c-1.33,0-2.87-0.6-3.41-1.62l0.76-0.89c0.63,0.83,1.76,1.28,2.67,1.28c1.13,0,2.11-0.59,2.11-1.68
			C157.75,212.03,152.48,212.88,152.48,209.3z"/>
		<path class="st1" d="M161.6,206.64h8.86v1.23h-3.78v9.56h-1.31v-9.56h-3.78V206.64z"/>
		<path class="st1" d="M174.08,206.64h1.31v10.79h-1.31V206.64z"/>
		<path class="st1" d="M188.45,217.42l-6.73-8.48v8.48h-1.23v-10.79h1.05l6.73,8.51v-8.51h1.23v10.79H188.45z"/>
		<path class="st1" d="M197.53,206.57h1.13l4.64,10.85h-1.4l-1.39-3.27h-4.92l-1.37,3.27h-1.33L197.53,206.57z M196.11,212.92h3.88
			l-1.94-4.61L196.11,212.92z"/>
		<path class="st1" d="M219.66,217.42l-6.73-8.48v8.48h-1.23v-10.79h1.05l6.73,8.51v-8.51h1.23v10.79H219.66z"/>
		<path class="st1" d="M230.14,206.48c3.13,0,5.5,2.27,5.5,5.55c0,3.21-2.37,5.55-5.5,5.55s-5.5-2.27-5.5-5.55
			C224.63,208.9,226.93,206.48,230.14,206.48z M230.14,216.35c2.47,0,4.11-1.88,4.11-4.32c0-2.51-1.8-4.31-4.11-4.31
			c-2.34,0-4.11,1.8-4.11,4.31C226.02,214.48,227.82,216.35,230.14,216.35z"/>
		<path class="st1" d="M243.04,217.49h-0.97l-4.55-10.85h1.4l3.67,8.88l3.56-8.88h1.33L243.04,217.49z"/>
		<path class="st1" d="M251.02,206.64h1.31v10.79h-1.31V206.64z"/>
		<path class="st1" d="M257.41,206.64h1.31v10.79h-1.31V206.64z M260.5,211.71l5.05,5.72h-1.68l-4.89-5.63l4.73-5.16h1.59
			L260.5,211.71z"/>
		<path class="st1" d="M273.09,206.48c3.13,0,5.5,2.27,5.5,5.55c0,3.21-2.37,5.55-5.5,5.55s-5.5-2.27-5.5-5.55
			C267.59,208.9,269.88,206.48,273.09,206.48z M273.09,216.35c2.47,0,4.11-1.88,4.11-4.32c0-2.51-1.8-4.31-4.11-4.31
			c-2.34,0-4.11,1.8-4.11,4.31C268.97,214.48,270.78,216.35,273.09,216.35z"/>
		<path class="st1" d="M285.99,217.49h-0.97l-4.55-10.85h1.4l3.67,8.88l3.56-8.88h1.33L285.99,217.49z"/>
		<path class="st1" d="M295.87,206.57h1.13l4.64,10.85h-1.4l-1.39-3.27h-4.92l-1.37,3.27h-1.33L295.87,206.57z M294.45,212.92h3.88
			l-1.94-4.61L294.45,212.92z"/>
	</g>
</g>
</svg>
